<svg data-v-fde0c5aa="" xmlns="http://www.w3.org/2000/svg" viewBox="0 0 300 300" class="iconLeft"><!----><defs data-v-fde0c5aa=""><!----></defs><rect data-v-fde0c5aa="" fill="transparent" x="0" y="0" width="300px" height="300px" class="logo-background-square"></rect><defs data-v-fde0c5aa=""><!----></defs><g data-v-fde0c5aa="" id="9bbf0e57-b82b-4d4c-a9a8-a42b03926f03" fill="#000000" transform="matrix(3.177767079943284,0,0,3.177767079943284,101.52475523455148,122.97309213669321)"><path d="M3.68 5.92C1.81 5.92 0.57 6.82 0.57 8.27C0.57 9.55 1.48 10.18 2.88 10.53C4.20 10.84 4.68 11.13 4.68 11.66C4.68 12.14 4.26 12.36 3.72 12.36C3.11 12.36 2.60 11.98 2.45 11.28L0.28 11.28C0.48 12.96 1.81 13.78 3.71 13.78C5.46 13.78 6.87 13.05 6.87 11.49C6.87 10.09 5.95 9.49 4.51 9.13C3.18 8.79 2.77 8.51 2.77 8.01C2.77 7.62 3.07 7.32 3.54 7.32C4.09 7.32 4.41 7.67 4.54 8.29L6.71 8.29C6.52 6.93 5.49 5.92 3.68 5.92ZM10.61 7.57L12.19 7.57L12.19 6.17L10.61 6.17L10.61 4.30L8.41 4.30L8.41 6.17L7.28 6.17L7.28 7.57L8.41 7.57L8.41 11.00C8.41 11.42 8.41 11.76 8.44 12.14C8.53 13.23 9.06 13.76 10.70 13.76C11.17 13.76 11.61 13.72 12.05 13.65L12.05 12.25C10.93 12.32 10.68 12.15 10.63 11.41C10.61 11.21 10.61 10.96 10.61 10.71ZM20.17 9.72C20.17 7.73 18.94 5.92 16.56 5.92C14.20 5.92 12.70 7.63 12.70 9.87C12.70 12.50 14.34 13.78 16.42 13.78C18.24 13.78 19.64 12.87 20.05 11.14L17.88 11.14C17.75 11.84 17.23 12.26 16.46 12.26C15.64 12.26 15.02 11.84 14.90 10.42L20.13 10.42C20.16 10.15 20.17 9.91 20.17 9.72ZM16.46 7.43C17.28 7.43 17.77 7.98 17.89 9.03L14.95 9.03C15.13 7.92 15.68 7.43 16.46 7.43ZM32.89 7.78C32.72 6.76 31.89 5.92 30.44 5.92C29.76 5.92 29.27 6.06 28.84 6.36L28.08 7.36C27.78 6.54 27.01 5.92 25.76 5.92C25.07 5.92 24.60 6.06 24.15 6.36L23.59 7.28L23.59 6.12L21.39 6.12L21.39 13.58L23.59 13.58L23.59 9.70C23.59 8.18 24.00 7.43 24.84 7.43C25.55 7.43 25.93 7.85 26.03 8.60C26.07 8.97 26.08 9.38 26.08 9.73L26.08 13.58L28.27 13.58L28.27 9.70C28.27 8.18 28.69 7.43 29.53 7.43C30.23 7.43 30.62 7.85 30.70 8.60C30.74 8.97 30.76 9.38 30.76 9.73L30.76 13.58L32.96 13.58L32.96 9.17C32.96 8.57 32.94 8.16 32.89 7.78ZM36.67 3.29L34.47 3.29L34.47 11.07C34.47 11.59 34.47 11.96 34.50 12.32C34.55 13.30 35.17 13.71 36.22 13.71C36.71 13.71 37.11 13.68 37.53 13.64L37.53 12.14C36.88 12.17 36.72 12.05 36.68 11.72C36.67 11.52 36.67 11.35 36.67 11.03ZM39.69 3.23C38.99 3.23 38.53 3.67 38.53 4.34C38.53 5.03 38.99 5.46 39.69 5.46C40.39 5.46 40.87 5.03 40.87 4.34C40.87 3.67 40.39 3.23 39.69 3.23ZM40.80 13.58L40.80 6.12L38.60 6.12L38.60 13.58ZM45.93 5.92C43.46 5.92 42.00 7.52 42.00 9.84C42.00 12.17 43.46 13.78 45.93 13.78C48.40 13.78 49.87 12.17 49.87 9.84C49.87 7.52 48.40 5.92 45.93 5.92ZM45.93 12.26C44.88 12.26 44.25 11.40 44.25 9.84C44.25 8.29 44.88 7.43 45.93 7.43C46.97 7.43 47.60 8.29 47.60 9.84C47.60 11.40 46.97 12.26 45.93 12.26Z"></path></g><defs data-v-fde0c5aa=""><!----></defs><g data-v-fde0c5aa="" id="e3c0a1fc-ca4b-4473-a231-461353fa21cb" stroke="none" fill="#1C99FF" transform="matrix(0.5460169063063401,0,0,0.5460169063063401,35.90487320270245,123.76388598566899)"><circle cx="28.4" cy="50.6" r="2.5"></circle><circle cx="64.6" cy="55.1" r="5"></circle><path d="M44.3 63.3c-.5-1.4-1.3-2.7-2.4-3.8-3.9-3.9-10.2-3.9-14.1 0-.8.8-1.5 1.8-1.9 2.8-3.4.1-6 .2-7.9.4 5 12.8 17.5 21.8 32 21.8 13.3 0 24.8-7.5 30.6-18.5-2.3.2-5.3.3-9.2.3-11.2 0-18.4-1.8-27.1-3z"></path><path d="M98 16.2L83.8 2 72.1 13.7c-6.4-3.9-14-6.2-22.1-6.2-23.5 0-42.5 19-42.5 42.5 0 14.1 6.9 26.6 17.4 34.3-.3.3-.6.6-.8 1l-2 3.5c-1 1.7-.4 3.8 1.3 4.8.6.3 1.2.5 1.7.5 1.2 0 2.4-.6 3-1.8l2-3.5c.2-.3.3-.7.4-1 5.8 3 12.4 4.7 19.5 4.7 6.4 0 12.5-1.4 17.9-4 .1.1.1.3.2.4l1.9 3.4c.6 1.1 1.8 1.8 3 1.8.6 0 1.2-.2 1.7-.5 1.7-1 2.2-3.1 1.3-4.8l-1.9-3.4c-.1-.1-.2-.2-.2-.3C85.1 77.5 92.5 64.6 92.5 50c0-8.1-2.3-15.7-6.2-22.1L98 16.2zM88.5 50c0 21.2-17.3 38.5-38.5 38.5S11.5 71.2 11.5 50 28.8 11.5 50 11.5c7.1 0 14 1.9 20 5.6l2.7 1.6 2.2-2.2 8.9-8.9 8.5 8.5-8.9 8.9-2.2 2.2 1.6 2.7c3.8 6.1 5.7 13 5.7 20.1z"></path></g><!----></svg>